<svg width="1180" height="380" viewBox="0 0 1180 380" fill="none" xmlns="http://www.w3.org/2000/svg">
<g opacity="0.3">
<path opacity="0.0144928" d="M317.324 547.741C308.659 553.218 297.416 552.301 289.755 545.491L172.123 440.94C167.592 436.913 164.834 431.26 164.449 425.21L149.428 189.303C149.125 184.545 150.308 179.811 152.813 175.755L259.788 2.55614C264.33 -4.79801 272.612 -8.98452 281.227 -8.28135L415.537 2.68102C424.153 3.38419 431.646 8.85824 434.936 16.8517L512.409 205.105C514.223 209.513 514.623 214.377 513.552 219.022L460.476 449.372C459.115 455.279 455.477 460.41 450.353 463.649L317.324 547.741Z" stroke="url(#paint0_linear_3009_916)" stroke-width="4"/>
<path opacity="0.0289855" d="M343.764 544.595C335.411 550.489 324.17 550.162 316.174 543.793L194.017 446.489C189.269 442.706 186.208 437.2 185.503 431.17L158.308 198.641C157.753 193.892 158.691 189.088 160.993 184.897L258.108 8.08969C262.264 0.523249 270.307 -4.07877 278.936 -3.82777L412.77 0.0651514C421.399 0.316148 429.161 5.37795 432.87 13.1731L519.544 195.326C521.598 199.644 522.256 204.495 521.425 209.204L480.76 439.759C479.706 445.737 476.33 451.056 471.37 454.556L343.764 544.595Z" stroke="url(#paint1_linear_3009_916)" stroke-width="4"/>
<path opacity="0.0434783" d="M369.92 540.669C361.898 546.962 350.691 547.223 342.385 541.31L216.138 451.438C211.185 447.912 207.829 442.569 206.805 436.576L167.749 208.047C166.941 203.32 167.631 198.458 169.722 194.142L256.894 14.2782C260.654 6.52008 268.437 1.51613 277.056 1.31545L410.045 -1.78117C418.664 -1.98185 426.672 2.65435 430.789 10.2291L526.237 185.84C528.528 190.054 529.444 194.879 528.856 199.639L500.479 429.738C499.735 435.772 496.631 441.266 491.848 445.018L369.92 540.669Z" stroke="url(#paint2_linear_3009_916)" stroke-width="4"/>
<path opacity="0.057971" d="M395.752 535.988C388.08 542.661 376.938 543.506 368.349 538.065L238.451 455.782C233.307 452.524 229.665 447.359 228.324 441.419L177.749 217.49C176.689 212.797 177.127 207.89 179.002 203.46L256.178 21.091C259.533 13.1621 267.036 7.7711 275.621 7.12048L407.404 -2.86669C415.989 -3.51731 424.219 0.681397 428.731 8.01411L532.509 176.669C535.03 180.767 536.203 185.552 535.863 190.351L519.613 419.344C519.182 425.418 516.36 431.073 511.766 435.069L395.752 535.988Z" stroke="url(#paint3_linear_3009_916)" stroke-width="4"/>
<path opacity="0.0724638" d="M421.22 530.576C413.917 537.61 402.87 539.032 394.024 534.076L260.921 459.516C255.601 456.536 251.682 451.565 250.026 445.695L188.307 226.939C186.997 222.294 187.181 217.355 188.833 212.82L255.99 28.495C258.933 20.4165 266.136 14.6542 274.664 13.5566L404.887 -3.20359C413.415 -4.30114 421.843 -0.550611 426.736 6.51935L538.377 167.833C541.124 171.801 542.553 176.533 542.461 181.358L538.145 408.613C538.03 414.711 535.497 420.512 531.105 424.743L421.22 530.576Z" stroke="url(#paint4_linear_3009_916)" stroke-width="4"/>
<path opacity="0.0869565" d="M446.288 524.462C439.371 531.835 428.449 533.827 419.375 529.37L283.517 462.639C278.035 459.946 273.849 455.183 271.882 449.401L199.421 236.365C197.862 231.781 197.789 226.823 199.213 222.195L256.358 36.4564C258.883 28.2499 265.769 22.1331 274.215 20.5929L402.534 -2.80489C410.981 -4.34509 419.582 -1.05222 424.841 5.73501L543.865 159.351C546.83 163.178 548.512 167.843 548.671 172.682L556.064 397.583C556.265 403.687 554.029 409.621 549.85 414.075L446.288 524.462Z" stroke="url(#paint5_linear_3009_916)" stroke-width="4"/>
<path opacity="0.101449" d="M470.923 517.671C464.406 525.363 453.64 527.915 444.364 523.966L306.203 465.146C300.575 462.75 296.133 458.21 293.86 452.531L211.084 245.734C209.279 241.225 208.948 236.26 210.139 231.551L257.309 44.9365C259.41 36.6241 265.961 30.1703 274.303 28.1929L400.382 -1.68961C408.725 -3.66697 417.475 -0.839635 423.084 5.64551L548.992 151.238C552.169 154.912 554.102 159.497 554.512 164.337L573.356 386.286C573.873 392.382 571.941 398.432 567.987 403.099L470.923 517.671Z" stroke="url(#paint6_linear_3009_916)" stroke-width="4"/>
<path opacity="0.115942" d="M495.09 510.237C488.989 518.225 478.407 521.326 468.959 517.895L328.947 467.041C323.188 464.949 318.502 460.646 315.928 455.086L223.291 255.02C221.244 250.598 220.654 245.64 221.606 240.861L258.866 53.9002C260.54 45.5037 266.738 38.7316 274.954 36.3238L398.47 0.126009C406.686 -2.2818 415.56 0.0732319 421.501 6.23828L553.782 143.513C557.163 147.022 559.342 151.514 560.006 156.342L590.012 374.763C590.846 380.832 589.224 386.984 585.505 391.853L495.09 510.237Z" stroke="url(#paint7_linear_3009_916)" stroke-width="4"/>
<path opacity="0.130435" d="M518.757 502.191C513.085 510.453 502.716 514.091 493.125 511.184L351.713 468.326C345.84 466.546 340.923 462.493 338.053 457.069L236.032 264.192C233.746 259.87 232.896 254.932 233.607 250.095L261.049 63.3095C262.292 54.8512 268.124 47.7801 276.191 44.9498L396.831 2.62217C404.897 -0.208169 413.869 1.66931 420.124 7.49692L558.255 136.19C561.832 139.522 564.254 143.909 565.169 148.711L606.023 363.05C607.172 369.078 605.864 375.315 602.391 380.374L518.757 502.191Z" stroke="url(#paint8_linear_3009_916)" stroke-width="4"/>
<path opacity="0.144928" d="M541.897 493.565C536.666 502.078 526.537 506.239 516.832 503.863L374.471 469.005C368.501 467.544 363.365 463.753 360.208 458.48L249.297 273.222C246.777 269.013 245.669 264.108 246.135 259.224L263.88 73.1235C264.69 64.6258 270.14 57.2758 278.036 54.032L395.5 5.77524C403.396 2.53143 412.439 3.92746 418.989 9.40137L562.437 129.281C566.201 132.427 568.861 136.694 570.028 141.459L621.384 351.183C622.846 357.153 621.858 363.46 618.639 368.696L541.897 493.565Z" stroke="url(#paint9_linear_3009_916)" stroke-width="4"/>
<path opacity="0.15942" d="M564.483 484.397C559.703 493.136 549.841 497.805 540.052 495.963L397.188 469.086C391.138 467.948 385.796 464.432 382.359 459.325L263.076 282.082C260.327 277.998 258.962 273.14 259.18 268.223L267.372 83.3046C267.75 74.7897 272.805 67.1815 280.508 63.5345L394.51 9.56372C402.213 5.91668 411.302 6.82879 418.127 11.9339L566.351 122.801C570.293 125.749 573.185 129.885 574.602 134.599L636.092 339.202C637.864 345.098 637.198 351.458 634.244 356.859L564.483 484.397Z" stroke="url(#paint10_linear_3009_916)" stroke-width="4"/>
<path opacity="0.173913" d="M586.49 474.721C582.171 483.662 572.602 488.821 562.759 487.517L419.833 468.576C413.72 467.766 408.188 464.535 404.479 459.609L277.355 290.746C274.384 286.799 272.763 282.001 272.731 277.062L271.543 93.8112C271.488 85.3013 276.136 77.4565 283.627 73.4176L393.892 13.9615C401.383 9.92259 410.491 10.3497 417.571 15.0719L570.024 116.759C574.133 119.5 577.251 123.492 578.915 128.142L650.146 327.143C652.225 332.949 651.884 339.346 649.202 344.899L586.49 474.721Z" stroke="url(#paint11_linear_3009_916)" stroke-width="4"/>
<path opacity="0.188406" d="M607.897 464.574C604.047 473.692 594.795 479.325 584.927 478.559L442.375 467.485C436.217 467.006 430.51 464.071 426.539 459.34L292.122 299.186C288.935 295.389 287.06 290.664 286.776 285.715L276.403 104.602C275.917 96.1197 280.148 88.0601 287.405 83.6417L393.676 18.9419C400.933 14.5235 410.035 14.4661 417.348 18.7925L573.478 111.165C577.745 113.69 581.081 117.525 582.991 122.099L663.548 315.044C665.927 320.744 665.915 327.162 663.512 332.852L607.897 464.574Z" stroke="url(#paint12_linear_3009_916)" stroke-width="4"/>
<path opacity="0.202899" d="M628.683 453.995C625.309 463.266 616.398 469.352 606.534 469.123L464.784 465.823C458.598 465.679 452.732 463.049 448.509 458.527L307.359 307.379C303.963 303.743 301.838 299.104 301.302 294.158L281.963 115.637C281.049 107.204 284.852 98.9518 291.857 94.1673L393.889 24.4772C400.894 19.6928 409.963 19.1524 417.487 23.0714L576.741 106.028C581.154 108.326 584.702 111.993 586.853 116.478L676.299 302.942C678.975 308.52 679.29 314.942 677.174 320.756L628.683 453.995Z" stroke="url(#paint13_linear_3009_916)" stroke-width="4"/>
<path opacity="0.217391" d="M648.83 443.022C645.937 452.421 637.39 458.94 627.561 459.245L487.031 463.604C480.836 463.796 474.826 461.48 470.363 457.181L323.05 315.299C319.454 311.836 317.083 307.296 316.294 302.365L288.229 126.874C286.891 118.511 290.258 110.09 296.992 104.954L394.557 30.5381C401.291 25.4021 410.302 24.3821 418.014 27.8831L579.838 101.352C584.385 103.416 588.136 106.904 590.525 111.288L688.405 290.873C691.371 296.315 692.016 302.723 690.192 308.646L648.83 443.022Z" stroke="url(#paint14_linear_3009_916)" stroke-width="4"/>
<path opacity="0.231884" d="M668.323 431.696C665.915 441.196 657.752 448.127 647.987 448.962L509.086 460.841C502.901 461.37 496.764 459.376 492.071 455.313L339.176 322.924C335.388 319.644 332.774 315.216 331.733 310.314L295.204 138.271C293.448 130.001 296.371 121.434 302.816 115.961L395.702 37.0938C402.147 31.6216 411.074 30.1265 418.951 33.2004L582.793 97.1446C587.461 98.9666 591.407 102.264 594.03 106.534L699.872 278.873C703.121 284.163 704.094 290.542 702.569 296.56L668.323 431.696Z" stroke="url(#paint15_linear_3009_916)" stroke-width="4"/>
<path opacity="0.246377" d="M687.149 420.056C685.23 429.632 677.471 436.952 667.799 438.312L530.926 457.552C524.768 458.418 518.521 456.753 513.611 452.937L355.72 330.233C351.748 327.147 348.898 322.843 347.606 317.982L302.894 149.788C300.725 141.631 303.199 132.941 309.338 127.149L397.349 44.114C403.488 38.3219 412.306 36.3576 420.323 38.9965L585.634 93.4092C590.412 94.9819 594.543 98.0776 597.393 102.222L710.712 266.978C714.236 272.102 715.535 278.435 714.313 284.532L687.149 420.056Z" stroke="url(#paint16_linear_3009_916)" stroke-width="4"/>
<path opacity="0.26087" d="M705.298 408.142C703.868 417.769 696.533 425.454 686.983 427.331L552.522 453.752C546.409 454.953 540.071 453.623 534.956 450.066L372.66 337.203C368.515 334.321 365.433 330.154 363.891 325.346L311.296 161.381C308.723 153.358 310.742 144.571 316.559 138.476L399.515 51.5645C405.333 45.4697 414.017 43.0436 422.151 45.2409L588.386 90.1468C593.26 91.4635 597.566 94.3479 600.639 98.3547L720.933 255.222C724.724 260.165 726.348 266.435 725.432 272.597L705.298 408.142Z" stroke="url(#paint17_linear_3009_916)" stroke-width="4"/>
<path opacity="0.275362" d="M722.762 395.994C721.821 405.647 714.927 413.672 705.526 416.057L573.85 449.458C567.801 450.993 561.388 450.003 556.083 446.717L389.975 343.816C385.666 341.146 382.359 337.128 380.569 332.386L320.409 173.011C317.439 165.143 319.001 156.28 324.481 149.901L402.221 59.4124C407.701 53.0329 416.227 50.1536 424.454 51.904L591.074 87.3583C596.032 88.4133 600.503 91.0766 603.791 94.9342L730.55 243.637C734.598 248.387 736.543 254.577 735.938 260.789L722.762 395.994Z" stroke="url(#paint18_linear_3009_916)" stroke-width="4"/>
<path opacity="0.289855" d="M739.534 383.655C739.082 393.308 732.643 401.649 723.419 404.531L594.887 444.693C588.919 446.557 582.45 445.912 576.968 442.906L407.642 350.054C403.18 347.607 399.656 343.75 397.621 339.085L330.228 184.639C326.871 176.944 327.972 168.031 333.102 161.386L405.48 67.6257C410.61 60.9802 418.953 57.6576 427.247 58.9573L593.725 85.0456C598.753 85.8334 603.377 88.2663 606.874 91.9633L739.576 232.26C743.872 236.802 746.134 242.897 745.841 249.142L739.534 383.655Z" stroke="url(#paint19_linear_3009_916)" stroke-width="4"/>
<path opacity="0.304348" d="M755.611 371.164C755.644 380.792 749.676 389.422 740.656 392.79L615.609 439.475C609.741 441.666 603.234 441.368 597.591 438.652L425.639 355.9C421.035 353.684 417.3 349.999 415.023 345.425L340.745 196.223C337.011 188.721 337.652 179.782 342.418 172.89L409.307 76.1685C414.073 69.2764 422.21 65.5219 430.547 66.3684L596.363 83.205C601.446 83.7212 606.213 85.915 609.911 89.4405L748.028 221.119C752.561 225.441 755.136 231.424 755.157 237.687L755.611 371.164Z" stroke="url(#paint20_linear_3009_916)" stroke-width="4"/>
<path opacity="0.318841" d="M770.993 358.562C771.508 368.14 766.023 377.032 757.233 380.872L635.997 433.826C630.247 436.337 623.721 436.391 617.93 433.973L443.941 361.338C439.207 359.361 435.27 355.859 432.755 351.388L351.953 207.724C347.853 200.434 348.033 191.493 352.424 184.374L413.714 85.0058C418.104 77.8873 426.013 73.7133 434.368 74.1054L599.015 81.8336C604.139 82.0741 609.036 84.0208 612.927 87.3641L755.925 210.245C760.684 214.335 763.565 220.191 763.902 226.456L770.993 358.562Z" stroke="url(#paint21_linear_3009_916)" stroke-width="4"/>
<path opacity="0.333333" d="M785.681 345.888C786.671 355.392 781.681 364.519 773.146 368.815L656.031 427.767C650.416 430.594 643.889 430.999 637.967 428.888L462.524 366.353C457.672 364.624 453.541 361.316 450.793 356.959L363.838 219.103C359.384 212.043 359.106 203.124 363.11 195.8L418.71 94.102C422.714 86.7776 430.373 82.1978 438.72 82.1359L601.704 80.926C606.855 80.8878 611.87 82.5797 615.945 85.7307L763.286 199.667C768.259 203.513 771.441 209.226 772.092 215.478L785.681 345.888Z" stroke="url(#paint22_linear_3009_916)" stroke-width="4"/>
<path opacity="0.347826" d="M799.677 333.183C801.137 342.59 796.651 351.923 788.395 356.661L675.692 421.325C670.229 424.459 663.72 425.216 657.684 423.419L481.362 370.936C476.405 369.46 472.089 366.357 469.113 362.126L376.388 230.326C371.594 223.513 370.86 214.639 374.468 207.13L424.303 103.424C427.912 95.9147 435.298 90.9439 443.614 90.4295L604.456 80.4787C609.618 80.1593 614.738 81.5895 618.988 84.5384L770.132 189.416C775.306 193.006 778.782 198.561 779.748 204.784L799.677 333.183Z" stroke="url(#paint23_linear_3009_916)" stroke-width="4"/>
<path opacity="0.362319" d="M812.988 320.486C814.91 329.771 810.938 339.283 802.984 344.443L694.965 414.52C689.672 417.955 683.2 419.063 677.065 417.587L500.431 375.073C495.381 373.857 490.891 370.968 487.692 366.875L389.588 241.354C384.468 234.803 383.282 225.999 386.486 218.327L430.5 112.933C433.704 105.261 440.799 99.9157 449.057 98.9518L607.294 80.4825C612.453 79.8803 617.665 81.0424 622.08 83.7798L776.488 179.514C781.85 182.839 785.612 188.221 786.891 194.4L812.988 320.486Z" stroke="url(#paint24_linear_3009_916)" stroke-width="4"/>
<path opacity="0.376812" d="M825.622 307.835C827.996 316.974 824.543 326.637 816.914 332.201L713.833 407.379C708.725 411.105 702.309 412.563 696.093 411.412L519.703 378.755C514.573 377.805 509.918 375.14 506.503 371.196L403.418 252.153C397.987 245.881 396.355 237.169 399.147 229.356L437.301 122.596C440.094 114.783 446.878 109.08 455.054 107.671L610.24 80.9298C615.381 80.0439 620.671 80.9322 625.241 83.4491L782.374 169.988C787.912 173.038 791.95 178.233 793.54 184.351L825.622 307.835Z" stroke="url(#paint25_linear_3009_916)" stroke-width="4"/>
<path opacity="0.391304" d="M837.589 295.268C840.407 304.241 837.478 314.024 830.193 319.973L732.284 399.928C727.378 403.935 721.037 405.74 714.756 404.92L539.152 381.975C533.956 381.296 529.148 378.864 525.523 375.079L417.863 262.689C412.135 256.711 410.063 248.115 412.438 240.183L444.711 132.378C447.086 124.447 453.54 118.403 461.611 116.555L613.318 81.8121C618.426 80.6423 623.781 81.2518 628.495 83.5398L787.82 160.863C793.518 163.628 797.824 168.622 799.721 174.665L837.589 295.268Z" stroke="url(#paint26_linear_3009_916)" stroke-width="4"/>
<path opacity="0.405797" d="M848.901 282.82C852.15 291.604 849.748 301.48 842.829 307.791L750.305 392.19C745.616 396.467 739.368 398.617 733.041 398.13L558.751 384.725C553.503 384.321 548.552 382.13 544.725 378.516L432.898 272.93C426.89 267.258 424.387 258.8 426.339 250.772L452.728 142.242C454.68 134.214 460.787 127.85 468.728 125.57L616.551 83.1164C621.61 81.6635 627.014 81.9898 631.862 84.0409L792.848 152.157C798.693 154.63 803.256 159.408 805.458 165.361L848.901 282.82Z" stroke="url(#paint27_linear_3009_916)" stroke-width="4"/>
<path opacity="0.42029" d="M859.572 270.53C863.24 279.104 861.368 289.043 854.832 295.695L767.885 384.195C763.429 388.731 757.293 391.22 750.936 391.07L578.473 387.002C573.187 386.878 568.105 384.935 564.083 381.503L448.501 282.845C442.232 277.494 439.305 269.196 440.831 261.095L461.348 152.156C462.874 144.055 468.619 137.39 476.406 134.686L619.958 84.8342C624.953 83.0996 630.393 83.139 635.362 84.9458L797.489 143.895C803.465 146.067 808.275 150.618 810.776 156.464L859.572 270.53Z" stroke="url(#paint28_linear_3009_916)" stroke-width="4"/>
<path opacity="0.434783" d="M869.619 258.429C873.692 266.772 872.349 276.746 866.215 283.715L785.016 375.966C780.807 380.749 774.802 383.571 768.433 383.76L598.291 388.8C592.982 388.958 587.781 387.272 583.573 384.03L464.65 292.405C458.135 287.385 454.796 279.268 455.893 271.117L470.569 162.083C471.666 153.932 477.033 146.987 484.643 143.868L623.561 86.9493C628.477 84.9352 633.938 84.6848 639.017 86.2405L801.77 136.09C807.862 137.956 812.907 142.265 815.703 147.991L869.619 258.429Z" stroke="url(#paint29_linear_3009_916)" stroke-width="4"/>
<path opacity="0.449275" d="M879.058 246.552C883.522 254.646 882.707 264.626 876.99 271.888L801.69 367.532C797.741 372.548 791.884 375.698 785.522 376.226L618.177 390.12C612.858 390.562 607.552 389.14 603.166 386.098L481.316 301.582C474.574 296.905 470.833 288.991 471.501 280.812L480.383 171.992C481.05 163.814 486.025 156.61 493.436 153.089L627.378 89.4507C632.199 87.1602 637.666 86.6177 642.843 87.916L805.72 128.763C811.912 130.316 817.181 134.373 820.264 139.963L879.058 246.552Z" stroke="url(#paint30_linear_3009_916)" stroke-width="4"/>
<path opacity="0.463768" d="M887.91 234.93C892.75 242.756 892.461 252.713 887.174 260.244L817.902 358.919C814.227 364.155 808.536 367.623 802.198 368.491L638.106 390.96C632.792 391.687 627.392 390.535 622.838 387.703L498.475 310.351C491.523 306.027 487.394 298.334 487.632 290.152L490.782 181.849C491.02 173.666 495.59 166.227 502.781 162.315L631.43 92.3221C636.141 89.7591 641.599 88.9229 646.861 89.9581L809.37 121.926C815.647 123.161 821.126 126.955 824.491 132.395L887.91 234.93Z" stroke="url(#paint31_linear_3009_916)" stroke-width="4"/>
<path opacity="0.478261" d="M896.195 223.594C901.395 231.134 901.626 241.04 896.783 248.813L833.646 350.154C830.256 355.595 824.75 359.374 818.454 360.58L658.048 391.32C652.755 392.334 647.274 391.458 642.561 388.843L516.095 318.686C508.953 314.725 504.448 307.273 504.258 299.109L501.755 191.622C501.565 183.458 505.719 175.805 512.668 171.516L635.732 95.5479C640.318 92.7172 645.752 91.5865 651.086 92.3534L812.749 115.594C819.095 116.506 824.771 120.025 828.411 125.302L896.195 223.594Z" stroke="url(#paint32_linear_3009_916)" stroke-width="4"/>
<path opacity="0.492754" d="M903.939 212.574C909.481 219.811 910.225 229.639 905.837 237.629L848.922 341.265C845.829 346.895 840.523 350.976 834.287 352.52L677.978 391.206C672.721 392.507 667.173 391.911 662.312 389.523L534.149 326.569C526.837 322.977 521.971 315.786 521.355 307.663L513.293 201.282C512.678 193.159 516.405 185.317 523.092 180.664L640.303 99.1137C644.749 96.0206 650.144 94.5955 655.537 95.0895L815.891 109.778C822.288 110.364 828.149 113.598 832.054 118.699L903.939 212.574Z" stroke="url(#paint33_linear_3009_916)" stroke-width="4"/>
<path opacity="0.507246" d="M911.162 201.894C917.028 208.814 918.28 218.535 914.356 226.715L863.725 332.276C860.941 338.081 855.852 342.453 849.694 344.33L697.869 390.619C692.663 392.206 687.062 391.896 682.062 389.742L552.605 333.975C545.143 330.76 539.93 323.846 538.893 315.787L525.38 210.797C524.343 202.738 527.635 194.729 534.04 189.73L645.157 102.999C649.448 99.6502 654.788 97.9314 660.227 98.1487L818.825 104.485C825.258 104.742 831.288 107.683 835.451 112.593L911.162 201.894Z" stroke="url(#paint34_linear_3009_916)" stroke-width="4"/>
<path opacity="0.521739" d="M917.892 191.582C924.064 198.169 925.812 207.758 922.362 216.1L878.057 323.217C875.591 329.178 870.735 333.83 864.674 336.037L717.696 389.566C712.554 391.438 706.914 391.416 701.788 389.504L571.432 340.888C563.839 338.056 558.296 331.436 556.842 323.463L538.002 220.137C536.548 212.165 539.397 204.015 545.503 198.685L650.31 107.189C654.432 103.59 659.701 101.579 665.172 101.517L821.584 99.7243C828.035 99.6503 834.22 102.289 838.631 106.996L917.892 191.582Z" stroke="url(#paint35_linear_3009_916)" stroke-width="4"/>
<path opacity="0.536232" d="M924.155 181.662C930.614 187.904 932.849 197.333 929.878 205.81L891.92 314.112C889.782 320.213 885.175 325.133 879.227 327.666L737.432 388.054C732.371 390.209 726.706 390.479 721.463 388.816L590.598 347.292C582.893 344.847 577.038 338.538 575.174 330.673L551.142 229.278C549.278 221.413 551.679 213.147 557.466 207.505L655.774 111.663C659.713 107.824 664.897 105.523 670.386 105.177L824.2 95.5017C830.653 95.0958 836.978 97.4241 841.627 101.916L924.155 181.662Z" stroke="url(#paint36_linear_3009_916)" stroke-width="4"/>
<path opacity="0.550725" d="M929.98 172.155C936.706 178.038 939.415 187.284 936.929 195.867L905.318 304.988C903.515 311.211 899.171 316.385 893.354 319.238L757.053 386.091C752.088 388.526 746.413 389.091 741.066 387.682L610.069 353.172C602.275 351.118 596.124 345.134 593.857 337.399L564.783 238.19C562.516 230.455 564.464 222.098 569.917 216.162L661.564 116.403C665.305 112.331 670.388 109.743 675.881 109.113L826.706 91.8194C833.143 91.0814 839.593 93.0924 844.469 97.3579L929.98 172.155Z" stroke="url(#paint37_linear_3009_916)" stroke-width="4"/>
<path opacity="0.565217" d="M935.395 163.082C942.367 168.596 945.538 177.633 943.539 186.294L918.254 295.871C916.794 302.197 912.728 307.612 907.059 310.779L776.535 383.687C771.681 386.398 766.009 387.26 760.569 386.112L629.813 358.516C621.948 356.856 615.52 351.211 612.859 343.626L578.905 246.85C576.243 239.266 577.735 230.842 582.838 224.632L667.689 121.389C671.219 117.094 676.185 114.222 681.669 113.307L829.134 88.6801C835.538 87.6106 842.096 89.2979 847.189 93.3256L935.395 163.082Z" stroke="url(#paint38_linear_3009_916)" stroke-width="4"/>
<path opacity="0.57971" d="M940.43 154.461C947.628 159.595 951.245 168.4 949.736 177.112L930.734 286.784C929.623 293.196 925.848 298.837 920.344 302.309L795.852 380.853C791.124 383.836 785.471 384.995 779.95 384.113L649.793 363.314C641.879 362.049 635.194 356.755 632.148 349.342L593.487 255.234C590.441 247.82 591.474 239.356 596.214 232.893L674.159 126.601C677.465 122.092 682.3 118.942 687.76 117.74L831.514 86.083C837.869 84.6835 844.52 86.0417 849.817 89.8208L940.43 154.461Z" stroke="url(#paint39_linear_3009_916)" stroke-width="4"/>
<path opacity="0.594203" d="M945.117 146.307C952.519 151.054 956.567 159.604 955.547 168.337L942.767 277.752C942.01 284.23 938.539 290.082 933.217 293.852L814.985 377.601C810.397 380.851 804.778 382.308 799.189 381.696L669.979 367.557C662.036 366.688 655.112 361.758 651.693 354.535L608.509 263.318C605.09 256.095 605.664 247.616 610.027 240.92L680.985 132.017C684.055 127.306 688.743 123.883 694.165 122.394L833.881 84.0258C840.17 82.2987 846.897 83.3229 852.387 86.8435L945.117 146.307Z" stroke="url(#paint40_linear_3009_916)" stroke-width="4"/>
<path opacity="0.608696" d="M949.486 138.638C957.07 142.988 961.531 151.262 960.998 159.989L954.36 268.8C953.961 275.325 950.806 281.372 945.681 285.43L833.909 373.946C829.476 377.457 823.905 379.212 818.26 378.875L690.333 371.241C682.38 370.767 675.24 366.211 671.459 359.198L623.947 271.084C620.166 264.071 620.283 255.602 624.256 248.697L688.173 137.62C690.994 132.718 695.521 129.028 700.89 127.253L836.264 82.5065C842.47 80.4549 849.256 81.1413 854.926 84.3939L949.486 138.638Z" stroke="url(#paint41_linear_3009_916)" stroke-width="4"/>
<path opacity="0.623188" d="M953.568 131.462C961.312 135.411 966.169 143.388 966.121 152.081L965.522 259.949C965.486 266.501 962.657 272.726 957.746 277.062L852.604 369.901C848.34 373.666 842.832 375.717 837.144 375.659L710.822 374.361C702.88 374.279 695.543 370.106 691.413 363.323L639.777 278.51C635.647 271.726 635.309 263.292 638.883 256.2L695.731 143.384C698.29 138.305 702.642 134.354 707.944 132.294L838.694 81.5169C844.801 79.1451 851.631 79.4905 857.467 82.4664L953.568 131.462Z" stroke="url(#paint42_linear_3009_916)" stroke-width="4"/>
<path opacity="0.637681" d="M957.397 124.792C965.279 128.333 970.512 135.994 970.943 144.625L976.266 251.222C976.594 257.78 974.102 264.166 969.419 268.77L871.048 365.481C866.968 369.493 861.538 371.839 855.82 372.062L731.411 376.914C723.5 377.222 715.987 373.441 711.522 366.904L655.976 285.579C651.511 279.042 650.722 270.668 653.887 263.412L703.663 149.291C705.951 144.046 710.111 139.842 715.333 137.5L841.203 81.0501C847.195 78.3629 854.049 78.3651 860.04 81.0561L957.397 124.792Z" stroke="url(#paint43_linear_3009_916)" stroke-width="4"/>
<path opacity="0.652174" d="M961.004 118.637C969.003 121.767 974.591 129.093 975.495 137.635L986.604 242.641C987.296 249.187 985.151 255.715 980.711 260.575L889.225 360.706C885.341 364.956 880.005 367.596 874.27 368.103L752.066 378.903C744.206 379.597 736.539 376.214 731.754 369.941L672.518 292.278C667.733 286.004 666.497 277.715 669.246 270.318L711.974 155.32C713.979 149.923 717.936 145.474 723.062 142.853L843.82 81.099C849.68 78.1021 856.544 77.7596 862.673 80.1582L961.004 118.637Z" stroke="url(#paint44_linear_3009_916)" stroke-width="4"/>
<path opacity="0.666667" d="M964.423 113C972.516 115.716 978.439 122.692 979.807 131.118L996.548 234.224C997.605 240.736 995.815 247.389 991.632 252.491L907.115 355.589C903.442 360.07 898.213 362.999 892.474 363.792L772.754 380.326C764.964 381.402 757.165 378.424 752.075 372.429L689.377 298.587C684.287 292.593 682.613 284.413 684.938 276.901L720.667 161.447C722.38 155.912 726.119 151.228 731.135 148.33L846.574 81.6494C852.287 78.3494 859.142 77.6617 865.397 79.7611L964.423 113Z" stroke="url(#paint45_linear_3009_916)" stroke-width="4"/>
<path opacity="0.681159" d="M967.686 107.889C975.851 110.19 982.086 116.799 983.909 125.084L1006.11 225.993C1007.53 232.452 1006.11 239.21 1002.19 244.542L924.701 350.154C921.251 354.855 916.146 358.07 910.416 359.15L793.44 381.193C785.739 382.644 777.829 380.074 772.451 374.374L706.527 304.499C701.149 298.799 699.043 290.753 700.94 283.15L729.744 167.653C731.155 161.995 734.662 157.085 739.555 153.915L849.493 82.6922C855.043 79.0964 861.873 78.0638 868.238 79.858L967.686 107.889Z" stroke="url(#paint46_linear_3009_916)" stroke-width="4"/>
<path opacity="0.695652" d="M970.826 103.305C979.04 105.191 985.565 111.419 987.832 119.536L1015.31 217.965C1017.1 224.35 1016.04 231.194 1012.41 236.741L941.967 344.417C938.754 349.328 933.786 352.825 928.079 354.192L814.091 381.505C806.498 383.325 798.5 381.167 792.852 375.776L723.939 310C718.291 304.609 715.764 296.72 717.228 289.05L739.206 173.915C740.306 168.15 743.568 163.025 748.324 159.587L852.605 84.2113C857.977 80.3278 864.764 78.9514 871.225 80.435L970.826 103.305Z" stroke="url(#paint47_linear_3009_916)" stroke-width="4"/>
<path opacity="0.710145" d="M973.875 99.2482C982.117 100.72 988.908 106.554 991.605 114.48L1024.16 210.157C1026.3 216.448 1025.62 223.358 1022.29 229.106L958.898 338.399C955.934 343.51 951.118 347.283 945.447 348.939L834.676 381.273C827.208 383.453 819.144 381.71 813.243 376.641L741.588 315.082C735.687 310.012 732.749 302.303 733.779 294.592L749.05 180.213C749.832 174.357 752.837 169.027 757.442 165.327L855.934 86.1923C861.115 82.0301 867.842 80.3119 874.384 81.4802L973.875 99.2482Z" stroke="url(#paint48_linear_3009_916)" stroke-width="4"/>
<path opacity="0.724638" d="M976.866 95.717C985.114 96.7769 992.147 102.206 995.261 109.917L1032.69 202.586C1035.18 208.763 1034.87 215.718 1031.85 221.651L975.483 332.121C972.78 337.419 968.13 341.464 962.509 343.407L855.163 380.506C847.838 383.038 839.731 381.71 833.596 376.974L759.448 319.736C753.313 315 749.976 307.493 750.57 299.766L759.279 186.525C759.735 180.595 762.47 175.072 766.911 171.116L859.509 88.617C864.483 84.1857 871.134 82.1285 877.741 82.9776L976.866 95.717Z" stroke="url(#paint49_linear_3009_916)" stroke-width="4"/>
<path opacity="0.73913" d="M979.83 92.7092C988.062 93.3607 995.313 98.3751 998.828 105.847L1040.89 195.267C1043.73 201.309 1043.81 208.289 1041.1 214.392L991.708 325.606C989.277 331.08 984.807 335.389 979.248 337.618L875.522 379.217C868.356 382.09 860.228 381.177 853.878 376.786L777.488 323.958C771.138 319.567 767.415 312.283 767.575 304.565L769.886 192.832C770.01 186.844 772.464 181.141 776.728 176.935L863.351 91.469C868.105 86.7788 874.662 84.3863 881.319 84.9131L979.83 92.7092Z" stroke="url(#paint50_linear_3009_916)" stroke-width="4"/>
<path opacity="0.753623" d="M982.799 90.2175C990.994 90.4651 998.437 95.0562 1002.34 102.268L1048.8 188.212C1051.99 194.101 1052.45 201.084 1050.06 207.34L1007.56 318.874C1005.41 324.51 1001.14 329.077 995.656 331.591L895.721 377.416C888.732 380.621 880.604 380.122 874.06 376.086L795.681 327.742C789.137 323.706 785.043 316.666 784.77 308.982L780.869 199.111C780.655 193.083 782.817 187.213 786.89 182.764L867.484 94.7264C872.004 89.7885 878.452 87.0652 885.143 87.2673L982.799 90.2175Z" stroke="url(#paint51_linear_3009_916)" stroke-width="4"/>
<path opacity="0.768116" d="M985.801 88.2361C993.938 88.0856 1001.55 92.2466 1005.81 99.1779L1056.43 181.435C1059.95 187.151 1060.8 194.117 1058.75 200.509L1023.03 311.948C1021.18 317.733 1017.11 322.55 1011.72 325.347L915.733 375.122C908.936 378.647 900.83 378.558 894.112 374.885L814.001 331.087C807.282 327.414 802.832 320.638 802.131 313.014L792.222 205.344C791.665 199.294 793.524 193.27 797.394 188.587L871.927 98.37C876.202 93.1961 882.523 90.1472 889.233 90.023L985.801 88.2361Z" stroke="url(#paint52_linear_3009_916)" stroke-width="4"/>
<path opacity="0.782609" d="M988.87 86.7565C996.929 86.2146 1004.68 89.9402 1009.29 96.5712L1063.81 174.948C1067.65 180.471 1068.88 187.4 1067.18 193.909L1038.12 304.853C1036.57 310.773 1032.72 315.831 1027.43 318.908L935.531 372.35C928.94 376.183 920.879 376.501 914.007 373.198L832.419 333.992C825.548 330.69 820.759 324.197 819.633 316.657L803.94 211.511C803.037 205.458 804.583 199.294 808.237 194.385L876.704 102.378C880.72 96.9805 886.899 93.6123 893.612 93.1609L988.87 86.7565Z" stroke="url(#paint53_linear_3009_916)" stroke-width="4"/>
<path opacity="0.797101" d="M992.03 85.7675C999.992 84.8424 1007.86 88.1286 1012.8 94.4412L1070.95 168.76C1075.1 174.073 1076.72 180.942 1075.36 187.551L1052.81 297.61C1051.57 303.651 1047.96 308.942 1042.78 312.295L955.087 369.119C948.717 373.247 940.721 373.966 933.717 371.041L850.909 336.459C843.905 333.534 838.795 327.342 837.252 319.91L816.015 217.593C814.762 211.555 815.986 205.267 819.412 200.14L881.829 106.728C885.577 101.119 891.598 97.4385 898.298 96.6598L992.03 85.7675Z" stroke="url(#paint54_linear_3009_916)" stroke-width="4"/>
<path opacity="0.811594" d="M995.314 85.2557C1003.16 83.9562 1011.12 86.8008 1016.36 92.778L1077.87 162.88C1082.33 167.964 1084.32 174.752 1083.32 181.441L1067.1 290.243C1066.18 296.389 1062.82 301.903 1057.77 305.528L974.379 365.447C968.243 369.856 960.333 370.97 953.218 368.427L869.445 338.488C862.33 335.945 856.918 330.07 854.966 322.77L828.441 223.57C826.836 217.566 827.728 211.169 830.915 205.834L887.324 111.393C890.792 105.587 896.639 101.602 903.311 100.497L995.314 85.2557Z" stroke="url(#paint55_linear_3009_916)" stroke-width="4"/>
<path opacity="0.826087" d="M998.746 85.2094C1006.46 83.5455 1014.48 85.9477 1020.01 91.5741L1084.59 157.317C1089.34 162.154 1091.71 168.84 1091.08 175.591L1080.98 282.777C1080.39 289.012 1077.29 294.739 1072.38 298.633L993.381 361.356C987.491 366.032 979.688 367.534 972.484 365.377L887.999 340.085C880.795 337.928 875.1 332.386 872.748 325.243L841.207 229.426C839.249 223.477 839.801 216.986 842.737 211.453L893.201 116.353C896.379 110.363 902.038 106.082 908.665 104.651L998.746 85.2094Z" stroke="url(#paint56_linear_3009_916)" stroke-width="4"/>
<path opacity="0.84058" d="M1002.35 85.612C1009.91 83.5948 1017.97 85.5554 1023.76 90.8168L1091.13 152.075C1096.16 156.649 1098.91 163.212 1098.64 170.005L1094.46 275.235C1094.21 281.544 1091.37 287.472 1086.62 291.63L1012.07 356.869C1006.44 361.797 998.763 363.678 991.492 361.91L906.547 341.255C899.275 339.487 893.318 334.292 890.578 327.328L854.304 235.142C851.992 229.267 852.198 222.699 854.872 216.98L899.475 121.579C902.355 115.421 907.81 110.852 914.378 109.099L1002.35 85.612Z" stroke="url(#paint57_linear_3009_916)" stroke-width="4"/>
<path opacity="0.855072" d="M1006.16 86.4473C1013.55 84.0886 1021.62 85.6098 1027.64 90.4938L1097.52 147.161C1102.81 151.455 1105.93 157.875 1106.03 164.69L1107.53 267.64C1107.62 274.006 1105.07 280.126 1100.48 284.542L1030.43 352.008C1025.07 357.174 1017.54 359.423 1010.22 358.045L925.062 342.006C917.745 340.628 911.548 335.793 908.431 329.031L867.722 240.704C865.057 234.922 864.908 228.294 867.31 222.398L906.159 127.047C908.731 120.735 913.969 115.889 920.462 113.815L1006.16 86.4473Z" stroke="url(#paint58_linear_3009_916)" stroke-width="4"/>
<path opacity="0.869565" d="M1010.19 87.6973C1017.39 85.0098 1025.45 86.0955 1031.69 90.591L1103.76 142.579C1109.31 146.577 1112.79 152.832 1113.26 159.649L1120.18 260.018C1120.63 266.423 1118.37 272.722 1113.96 277.391L1048.44 346.799C1043.36 352.185 1035.99 354.793 1028.65 353.805L943.522 342.347C936.181 341.358 929.765 336.895 926.286 330.357L881.447 246.093C878.431 240.425 877.922 233.754 880.042 227.694L913.263 132.73C915.519 126.279 920.527 121.166 926.929 118.777L1010.19 87.6973Z" stroke="url(#paint59_linear_3009_916)" stroke-width="4"/>
<path opacity="0.884058" d="M1014.46 89.3413C1021.46 86.3387 1029.49 86.9941 1035.91 91.0917L1109.9 138.33C1115.67 142.017 1119.5 148.087 1120.35 154.886L1132.43 252.39C1133.23 258.817 1131.28 265.283 1127.06 270.198L1066.08 341.265C1061.28 346.856 1054.1 349.81 1046.76 349.211L961.902 342.285C954.559 341.686 947.948 337.605 944.12 331.31L895.469 251.295C892.105 245.761 891.229 239.065 893.057 232.852L920.796 138.599C922.73 132.026 927.494 126.658 933.791 123.956L1014.46 89.3413Z" stroke="url(#paint60_linear_3009_916)" stroke-width="4"/>
<path opacity="0.898551" d="M1019 91.3611C1025.78 88.0577 1033.75 88.2896 1040.33 91.9815L1115.94 134.417C1121.93 137.779 1126.1 143.643 1127.32 150.405L1144.28 244.782C1145.44 251.213 1143.8 257.833 1139.79 262.987L1083.34 335.434C1078.84 341.213 1071.85 344.501 1064.53 344.288L980.18 341.835C972.857 341.622 966.074 337.933 961.915 331.902L909.775 256.296C906.065 250.917 904.819 244.214 906.346 237.861L928.766 144.629C930.372 137.95 934.88 132.338 941.056 129.33L1019 91.3611Z" stroke="url(#paint61_linear_3009_916)" stroke-width="4"/>
<path opacity="0.913043" d="M1023.83 93.7338C1030.38 90.1448 1038.26 89.9611 1044.98 93.2413L1121.9 130.839C1128.09 133.863 1132.6 139.502 1134.18 146.205L1155.73 237.216C1157.24 243.633 1155.94 250.392 1152.13 255.779L1100.2 329.332C1096 335.282 1089.23 338.891 1081.95 339.06L998.335 341.007C991.054 341.177 984.122 337.887 979.649 332.139L924.35 261.083C920.301 255.879 918.679 249.188 919.898 242.707L937.179 150.793C938.451 144.023 942.691 138.18 948.732 134.871L1023.83 93.7338Z" stroke="url(#paint62_linear_3009_916)" stroke-width="4"/>
<path opacity="0.927536" d="M1028.95 96.437C1035.26 92.5781 1043.04 91.9885 1049.86 94.8525L1127.81 127.595C1134.18 130.269 1139.01 135.664 1140.96 142.288L1166.77 229.715C1168.66 236.098 1167.68 242.985 1164.1 248.596L1116.65 322.987C1112.76 329.091 1106.22 333.005 1099 333.552L1016.34 339.816C1009.13 340.363 1002.07 337.48 997.301 332.032L939.18 265.642C934.796 260.634 932.796 253.973 933.697 247.378L946.036 157.06C946.971 150.217 950.932 144.157 956.824 140.553L1028.95 96.437Z" stroke="url(#paint63_linear_3009_916)" stroke-width="4"/>
<path opacity="0.942029" d="M1034.4 99.4476C1040.45 95.335 1048.1 94.3503 1055 96.7955L1133.68 124.683C1140.21 126.996 1145.35 132.128 1147.67 138.652L1177.43 222.3C1179.68 228.631 1179.05 235.63 1175.71 241.458L1132.68 316.427C1129.1 322.667 1122.81 326.872 1115.67 327.79L1034.19 338.277C1027.06 339.195 1019.9 336.722 1014.86 331.592L954.251 269.961C949.539 265.17 947.159 258.558 947.735 251.863L955.344 163.405C955.938 156.506 959.608 150.241 965.337 146.35L1034.4 99.4476Z" stroke="url(#paint64_linear_3009_916)" stroke-width="4"/>
<path opacity="0.956522" d="M1040.17 102.741C1045.96 98.3914 1053.46 97.0236 1060.42 99.0491L1139.54 122.099C1146.21 124.041 1151.64 128.891 1154.33 135.295L1187.71 214.995C1190.33 221.254 1190.05 228.351 1186.95 234.387L1148.29 309.679C1145.02 316.038 1138.99 320.517 1131.96 321.799L1051.86 336.404C1044.82 337.687 1037.6 335.626 1032.3 330.829L969.546 274.03C964.515 269.476 961.752 262.933 961.996 256.151L965.101 169.799C965.35 162.86 968.721 156.405 974.274 152.235L1040.17 102.741Z" stroke="url(#paint65_linear_3009_916)" stroke-width="4"/>
<path opacity="0.971014" d="M1046.29 106.292C1051.81 101.724 1059.14 99.9862 1066.12 101.593L1145.41 119.839C1152.19 121.401 1157.9 125.951 1160.94 132.216L1197.61 207.819C1200.6 213.987 1200.69 221.167 1197.84 227.403L1163.46 302.773C1160.51 309.233 1154.75 313.969 1147.84 315.607L1069.32 334.216C1062.41 335.854 1055.14 334.209 1049.6 329.758L985.051 277.838C979.71 273.542 976.563 267.087 976.469 260.234L975.306 176.214C975.21 169.252 978.272 162.622 983.635 158.181L1046.29 106.292Z" stroke="url(#paint66_linear_3009_916)" stroke-width="4"/>
<path opacity="0.985507" d="M1052.77 110.078C1058.01 105.307 1065.15 103.215 1072.13 104.405L1151.29 117.899C1158.17 119.072 1164.15 123.307 1167.53 129.41L1207.15 200.796C1210.51 206.852 1210.97 214.099 1208.39 220.526L1178.19 295.738C1175.56 302.281 1170.08 307.258 1163.32 309.241L1086.57 331.731C1079.81 333.713 1072.51 332.483 1066.76 328.393L1000.75 281.377C995.107 277.359 991.576 271.014 991.137 264.102L985.957 182.624C985.514 175.657 988.259 168.866 993.419 164.164L1052.77 110.078Z" stroke="url(#paint67_linear_3009_916)" stroke-width="4"/>
<path d="M1059.62 114.071C1064.56 109.117 1071.49 106.685 1078.45 107.463L1157.21 116.27C1164.17 117.048 1170.39 120.951 1174.12 126.875L1216.34 193.944C1220.07 199.868 1220.9 207.167 1218.59 213.775L1192.48 288.603C1190.17 295.211 1184.98 300.41 1178.38 302.727L1103.6 328.966C1096.99 331.283 1089.69 330.467 1083.76 326.748L1016.62 284.639C1010.69 280.92 1006.78 274.703 1005.99 267.749L997.048 189.002C996.259 182.047 998.679 175.111 1003.62 170.158L1059.62 114.071Z" stroke="url(#paint68_linear_3009_916)" stroke-width="4"/>
</g>
<defs>
<linearGradient id="paint0_linear_3009_916" x1="302.489" y1="559.485" x2="352.761" y2="-56.4525" gradientUnits="userSpaceOnUse">
<stop stop-color="#FF1CF7"/>
<stop offset="1" stop-color="#00F0FF"/>
</linearGradient>
<linearGradient id="paint1_linear_3009_916" x1="329.595" y1="557.04" x2="347.405" y2="-55.232" gradientUnits="userSpaceOnUse">
<stop stop-color="#FF1CF7"/>
<stop offset="1" stop-color="#00F0FF"/>
</linearGradient>
<linearGradient id="paint2_linear_3009_916" x1="356.451" y1="553.778" x2="342.319" y2="-53.1343" gradientUnits="userSpaceOnUse">
<stop stop-color="#FF1CF7"/>
<stop offset="1" stop-color="#00F0FF"/>
</linearGradient>
<linearGradient id="paint3_linear_3009_916" x1="383.012" y1="549.721" x2="337.549" y2="-50.1814" gradientUnits="userSpaceOnUse">
<stop stop-color="#FF1CF7"/>
<stop offset="1" stop-color="#00F0FF"/>
</linearGradient>
<linearGradient id="paint4_linear_3009_916" x1="409.239" y1="544.892" x2="333.138" y2="-46.3989" gradientUnits="userSpaceOnUse">
<stop stop-color="#FF1CF7"/>
<stop offset="1" stop-color="#00F0FF"/>
</linearGradient>
<linearGradient id="paint5_linear_3009_916" x1="435.093" y1="539.318" x2="329.129" y2="-41.8133" gradientUnits="userSpaceOnUse">
<stop stop-color="#FF1CF7"/>
<stop offset="1" stop-color="#00F0FF"/>
</linearGradient>
<linearGradient id="paint6_linear_3009_916" x1="460.536" y1="533.025" x2="325.561" y2="-36.4571" gradientUnits="userSpaceOnUse">
<stop stop-color="#FF1CF7"/>
<stop offset="1" stop-color="#00F0FF"/>
</linearGradient>
<linearGradient id="paint7_linear_3009_916" x1="485.535" y1="526.043" x2="322.474" y2="-30.3601" gradientUnits="userSpaceOnUse">
<stop stop-color="#FF1CF7"/>
<stop offset="1" stop-color="#00F0FF"/>
</linearGradient>
<linearGradient id="paint8_linear_3009_916" x1="510.052" y1="518.404" x2="319.9" y2="-23.5556" gradientUnits="userSpaceOnUse">
<stop stop-color="#FF1CF7"/>
<stop offset="1" stop-color="#00F0FF"/>
</linearGradient>
<linearGradient id="paint9_linear_3009_916" x1="534.059" y1="510.14" x2="317.877" y2="-16.0806" gradientUnits="userSpaceOnUse">
<stop stop-color="#FF1CF7"/>
<stop offset="1" stop-color="#00F0FF"/>
</linearGradient>
<linearGradient id="paint10_linear_3009_916" x1="557.525" y1="501.285" x2="316.433" y2="-7.96996" gradientUnits="userSpaceOnUse">
<stop stop-color="#FF1CF7"/>
<stop offset="1" stop-color="#00F0FF"/>
</linearGradient>
<linearGradient id="paint11_linear_3009_916" x1="580.425" y1="491.876" x2="315.599" y2="0.737177" gradientUnits="userSpaceOnUse">
<stop stop-color="#FF1CF7"/>
<stop offset="1" stop-color="#00F0FF"/>
</linearGradient>
<linearGradient id="paint12_linear_3009_916" x1="602.732" y1="481.948" x2="315.402" y2="10.0012" gradientUnits="userSpaceOnUse">
<stop stop-color="#FF1CF7"/>
<stop offset="1" stop-color="#00F0FF"/>
</linearGradient>
<linearGradient id="paint13_linear_3009_916" x1="624.426" y1="471.54" x2="315.866" y2="19.7816" gradientUnits="userSpaceOnUse">
<stop stop-color="#FF1CF7"/>
<stop offset="1" stop-color="#00F0FF"/>
</linearGradient>
<linearGradient id="paint14_linear_3009_916" x1="645.485" y1="460.69" x2="317.012" y2="30.0368" gradientUnits="userSpaceOnUse">
<stop stop-color="#FF1CF7"/>
<stop offset="1" stop-color="#00F0FF"/>
</linearGradient>
<linearGradient id="paint15_linear_3009_916" x1="665.889" y1="449.438" x2="318.859" y2="40.724" gradientUnits="userSpaceOnUse">
<stop stop-color="#FF1CF7"/>
<stop offset="1" stop-color="#00F0FF"/>
</linearGradient>
<linearGradient id="paint16_linear_3009_916" x1="685.627" y1="437.825" x2="321.425" y2="51.8009" gradientUnits="userSpaceOnUse">
<stop stop-color="#FF1CF7"/>
<stop offset="1" stop-color="#00F0FF"/>
</linearGradient>
<linearGradient id="paint17_linear_3009_916" x1="704.684" y1="425.891" x2="324.723" y2="63.2221" gradientUnits="userSpaceOnUse">
<stop stop-color="#FF1CF7"/>
<stop offset="1" stop-color="#00F0FF"/>
</linearGradient>
<linearGradient id="paint18_linear_3009_916" x1="723.049" y1="413.675" x2="328.765" y2="74.9437" gradientUnits="userSpaceOnUse">
<stop stop-color="#FF1CF7"/>
<stop offset="1" stop-color="#00F0FF"/>
</linearGradient>
<linearGradient id="paint19_linear_3009_916" x1="740.713" y1="401.223" x2="333.56" y2="86.9233" gradientUnits="userSpaceOnUse">
<stop stop-color="#FF1CF7"/>
<stop offset="1" stop-color="#00F0FF"/>
</linearGradient>
<linearGradient id="paint20_linear_3009_916" x1="757.671" y1="388.572" x2="339.113" y2="99.1149" gradientUnits="userSpaceOnUse">
<stop stop-color="#FF1CF7"/>
<stop offset="1" stop-color="#00F0FF"/>
</linearGradient>
<linearGradient id="paint21_linear_3009_916" x1="773.92" y1="375.766" x2="345.429" y2="111.474" gradientUnits="userSpaceOnUse">
<stop stop-color="#FF1CF7"/>
<stop offset="1" stop-color="#00F0FF"/>
</linearGradient>
<linearGradient id="paint22_linear_3009_916" x1="789.458" y1="362.843" x2="352.508" y2="123.956" gradientUnits="userSpaceOnUse">
<stop stop-color="#FF1CF7"/>
<stop offset="1" stop-color="#00F0FF"/>
</linearGradient>
<linearGradient id="paint23_linear_3009_916" x1="804.287" y1="349.848" x2="360.35" y2="136.519" gradientUnits="userSpaceOnUse">
<stop stop-color="#FF1CF7"/>
<stop offset="1" stop-color="#00F0FF"/>
</linearGradient>
<linearGradient id="paint24_linear_3009_916" x1="818.411" y1="336.818" x2="368.951" y2="149.117" gradientUnits="userSpaceOnUse">
<stop stop-color="#FF1CF7"/>
<stop offset="1" stop-color="#00F0FF"/>
</linearGradient>
<linearGradient id="paint25_linear_3009_916" x1="831.835" y1="323.795" x2="378.303" y2="161.709" gradientUnits="userSpaceOnUse">
<stop stop-color="#FF1CF7"/>
<stop offset="1" stop-color="#00F0FF"/>
</linearGradient>
<linearGradient id="paint26_linear_3009_916" x1="844.568" y1="310.817" x2="388.4" y2="174.254" gradientUnits="userSpaceOnUse">
<stop stop-color="#FF1CF7"/>
<stop offset="1" stop-color="#00F0FF"/>
</linearGradient>
<linearGradient id="paint27_linear_3009_916" x1="856.618" y1="297.92" x2="399.228" y2="186.707" gradientUnits="userSpaceOnUse">
<stop stop-color="#FF1CF7"/>
<stop offset="1" stop-color="#00F0FF"/>
</linearGradient>
<linearGradient id="paint28_linear_3009_916" x1="868" y1="285.146" x2="410.777" y2="199.033" gradientUnits="userSpaceOnUse">
<stop stop-color="#FF1CF7"/>
<stop offset="1" stop-color="#00F0FF"/>
</linearGradient>
<linearGradient id="paint29_linear_3009_916" x1="878.727" y1="272.527" x2="423.029" y2="211.189" gradientUnits="userSpaceOnUse">
<stop stop-color="#FF1CF7"/>
<stop offset="1" stop-color="#00F0FF"/>
</linearGradient>
<linearGradient id="paint30_linear_3009_916" x1="888.815" y1="260.101" x2="435.968" y2="223.14" gradientUnits="userSpaceOnUse">
<stop stop-color="#FF1CF7"/>
<stop offset="1" stop-color="#00F0FF"/>
</linearGradient>
<linearGradient id="paint31_linear_3009_916" x1="898.283" y1="247.899" x2="449.574" y2="234.848" gradientUnits="userSpaceOnUse">
<stop stop-color="#FF1CF7"/>
<stop offset="1" stop-color="#00F0FF"/>
</linearGradient>
<linearGradient id="paint32_linear_3009_916" x1="907.15" y1="235.955" x2="463.826" y2="246.278" gradientUnits="userSpaceOnUse">
<stop stop-color="#FF1CF7"/>
<stop offset="1" stop-color="#00F0FF"/>
</linearGradient>
<linearGradient id="paint33_linear_3009_916" x1="915.438" y1="224.302" x2="478.701" y2="257.4" gradientUnits="userSpaceOnUse">
<stop stop-color="#FF1CF7"/>
<stop offset="1" stop-color="#00F0FF"/>
</linearGradient>
<linearGradient id="paint34_linear_3009_916" x1="923.17" y1="212.964" x2="494.173" y2="268.178" gradientUnits="userSpaceOnUse">
<stop stop-color="#FF1CF7"/>
<stop offset="1" stop-color="#00F0FF"/>
</linearGradient>
<linearGradient id="paint35_linear_3009_916" x1="930.369" y1="201.973" x2="510.216" y2="278.585" gradientUnits="userSpaceOnUse">
<stop stop-color="#FF1CF7"/>
<stop offset="1" stop-color="#00F0FF"/>
</linearGradient>
<linearGradient id="paint36_linear_3009_916" x1="937.064" y1="191.355" x2="526.803" y2="288.592" gradientUnits="userSpaceOnUse">
<stop stop-color="#FF1CF7"/>
<stop offset="1" stop-color="#00F0FF"/>
</linearGradient>
<linearGradient id="paint37_linear_3009_916" x1="943.28" y1="181.132" x2="543.905" y2="298.173" gradientUnits="userSpaceOnUse">
<stop stop-color="#FF1CF7"/>
<stop offset="1" stop-color="#00F0FF"/>
</linearGradient>
<linearGradient id="paint38_linear_3009_916" x1="949.046" y1="171.328" x2="561.49" y2="307.305" gradientUnits="userSpaceOnUse">
<stop stop-color="#FF1CF7"/>
<stop offset="1" stop-color="#00F0FF"/>
</linearGradient>
<linearGradient id="paint39_linear_3009_916" x1="954.39" y1="161.963" x2="579.528" y2="315.964" gradientUnits="userSpaceOnUse">
<stop stop-color="#FF1CF7"/>
<stop offset="1" stop-color="#00F0FF"/>
</linearGradient>
<linearGradient id="paint40_linear_3009_916" x1="959.345" y1="153.055" x2="597.986" y2="324.13" gradientUnits="userSpaceOnUse">
<stop stop-color="#FF1CF7"/>
<stop offset="1" stop-color="#00F0FF"/>
</linearGradient>
<linearGradient id="paint41_linear_3009_916" x1="963.94" y1="144.624" x2="616.83" y2="331.788" gradientUnits="userSpaceOnUse">
<stop stop-color="#FF1CF7"/>
<stop offset="1" stop-color="#00F0FF"/>
</linearGradient>
<linearGradient id="paint42_linear_3009_916" x1="968.206" y1="136.681" x2="636.027" y2="338.918" gradientUnits="userSpaceOnUse">
<stop stop-color="#FF1CF7"/>
<stop offset="1" stop-color="#00F0FF"/>
</linearGradient>
<linearGradient id="paint43_linear_3009_916" x1="972.177" y1="129.239" x2="655.541" y2="345.508" gradientUnits="userSpaceOnUse">
<stop stop-color="#FF1CF7"/>
<stop offset="1" stop-color="#00F0FF"/>
</linearGradient>
<linearGradient id="paint44_linear_3009_916" x1="975.885" y1="122.312" x2="675.339" y2="351.548" gradientUnits="userSpaceOnUse">
<stop stop-color="#FF1CF7"/>
<stop offset="1" stop-color="#00F0FF"/>
</linearGradient>
<linearGradient id="paint45_linear_3009_916" x1="979.363" y1="115.905" x2="695.384" y2="357.026" gradientUnits="userSpaceOnUse">
<stop stop-color="#FF1CF7"/>
<stop offset="1" stop-color="#00F0FF"/>
</linearGradient>
<linearGradient id="paint46_linear_3009_916" x1="982.644" y1="110.027" x2="715.641" y2="361.937" gradientUnits="userSpaceOnUse">
<stop stop-color="#FF1CF7"/>
<stop offset="1" stop-color="#00F0FF"/>
</linearGradient>
<linearGradient id="paint47_linear_3009_916" x1="985.761" y1="104.682" x2="736.073" y2="366.275" gradientUnits="userSpaceOnUse">
<stop stop-color="#FF1CF7"/>
<stop offset="1" stop-color="#00F0FF"/>
</linearGradient>
<linearGradient id="paint48_linear_3009_916" x1="988.747" y1="99.8725" x2="756.646" y2="370.037" gradientUnits="userSpaceOnUse">
<stop stop-color="#FF1CF7"/>
<stop offset="1" stop-color="#00F0FF"/>
</linearGradient>
<linearGradient id="paint49_linear_3009_916" x1="991.636" y1="95.5987" x2="777.326" y2="373.223" gradientUnits="userSpaceOnUse">
<stop stop-color="#FF1CF7"/>
<stop offset="1" stop-color="#00F0FF"/>
</linearGradient>
<linearGradient id="paint50_linear_3009_916" x1="994.459" y1="91.8606" x2="798.075" y2="375.834" gradientUnits="userSpaceOnUse">
<stop stop-color="#FF1CF7"/>
<stop offset="1" stop-color="#00F0FF"/>
</linearGradient>
<linearGradient id="paint51_linear_3009_916" x1="997.249" y1="88.6531" x2="818.859" y2="377.873" gradientUnits="userSpaceOnUse">
<stop stop-color="#FF1CF7"/>
<stop offset="1" stop-color="#00F0FF"/>
</linearGradient>
<linearGradient id="paint52_linear_3009_916" x1="1000.04" y1="85.9724" x2="839.645" y2="379.346" gradientUnits="userSpaceOnUse">
<stop stop-color="#FF1CF7"/>
<stop offset="1" stop-color="#00F0FF"/>
</linearGradient>
<linearGradient id="paint53_linear_3009_916" x1="1002.86" y1="83.8117" x2="860.399" y2="380.261" gradientUnits="userSpaceOnUse">
<stop stop-color="#FF1CF7"/>
<stop offset="1" stop-color="#00F0FF"/>
</linearGradient>
<linearGradient id="paint54_linear_3009_916" x1="1005.73" y1="82.1619" x2="881.088" y2="380.628" gradientUnits="userSpaceOnUse">
<stop stop-color="#FF1CF7"/>
<stop offset="1" stop-color="#00F0FF"/>
</linearGradient>
<linearGradient id="paint55_linear_3009_916" x1="1008.7" y1="81.0111" x2="901.683" y2="380.455" gradientUnits="userSpaceOnUse">
<stop stop-color="#FF1CF7"/>
<stop offset="1" stop-color="#00F0FF"/>
</linearGradient>
<linearGradient id="paint56_linear_3009_916" x1="1011.78" y1="80.3495" x2="922.15" y2="379.759" gradientUnits="userSpaceOnUse">
<stop stop-color="#FF1CF7"/>
<stop offset="1" stop-color="#00F0FF"/>
</linearGradient>
<linearGradient id="paint57_linear_3009_916" x1="1015.01" y1="80.162" x2="942.462" y2="378.552" gradientUnits="userSpaceOnUse">
<stop stop-color="#FF1CF7"/>
<stop offset="1" stop-color="#00F0FF"/>
</linearGradient>
<linearGradient id="paint58_linear_3009_916" x1="1018.42" y1="80.4338" x2="962.589" y2="376.852" gradientUnits="userSpaceOnUse">
<stop stop-color="#FF1CF7"/>
<stop offset="1" stop-color="#00F0FF"/>
</linearGradient>
<linearGradient id="paint59_linear_3009_916" x1="1022.01" y1="81.1483" x2="982.504" y2="374.676" gradientUnits="userSpaceOnUse">
<stop stop-color="#FF1CF7"/>
<stop offset="1" stop-color="#00F0FF"/>
</linearGradient>
<linearGradient id="paint60_linear_3009_916" x1="1025.83" y1="82.2862" x2="1002.18" y2="372.043" gradientUnits="userSpaceOnUse">
<stop stop-color="#FF1CF7"/>
<stop offset="1" stop-color="#00F0FF"/>
</linearGradient>
<linearGradient id="paint61_linear_3009_916" x1="1029.89" y1="83.8303" x2="1021.6" y2="368.976" gradientUnits="userSpaceOnUse">
<stop stop-color="#FF1CF7"/>
<stop offset="1" stop-color="#00F0FF"/>
</linearGradient>
<linearGradient id="paint62_linear_3009_916" x1="1034.22" y1="85.759" x2="1040.73" y2="365.495" gradientUnits="userSpaceOnUse">
<stop stop-color="#FF1CF7"/>
<stop offset="1" stop-color="#00F0FF"/>
</linearGradient>
<linearGradient id="paint63_linear_3009_916" x1="1038.83" y1="88.0506" x2="1059.56" y2="361.623" gradientUnits="userSpaceOnUse">
<stop stop-color="#FF1CF7"/>
<stop offset="1" stop-color="#00F0FF"/>
</linearGradient>
<linearGradient id="paint64_linear_3009_916" x1="1043.74" y1="90.6827" x2="1078.07" y2="357.386" gradientUnits="userSpaceOnUse">
<stop stop-color="#FF1CF7"/>
<stop offset="1" stop-color="#00F0FF"/>
</linearGradient>
<linearGradient id="paint65_linear_3009_916" x1="1048.97" y1="93.6314" x2="1096.23" y2="352.806" gradientUnits="userSpaceOnUse">
<stop stop-color="#FF1CF7"/>
<stop offset="1" stop-color="#00F0FF"/>
</linearGradient>
<linearGradient id="paint66_linear_3009_916" x1="1054.53" y1="96.8732" x2="1114.03" y2="347.912" gradientUnits="userSpaceOnUse">
<stop stop-color="#FF1CF7"/>
<stop offset="1" stop-color="#00F0FF"/>
</linearGradient>
<linearGradient id="paint67_linear_3009_916" x1="1060.44" y1="100.384" x2="1131.46" y2="342.731" gradientUnits="userSpaceOnUse">
<stop stop-color="#FF1CF7"/>
<stop offset="1" stop-color="#00F0FF"/>
</linearGradient>
<linearGradient id="paint68_linear_3009_916" x1="1066.71" y1="104.137" x2="1148.51" y2="337.288" gradientUnits="userSpaceOnUse">
<stop stop-color="#FF1CF7"/>
<stop offset="1" stop-color="#00F0FF"/>
</linearGradient>
</defs>
</svg>
